<svg xmlns="http://www.w3.org/2000/svg" width="100%" height="100%" viewBox="0 0 24 24" fill="currentColor">
  <title>Bluesky</title>
  <path d="M12 10.8c-1.087-2.114-4.046-6.053-6.798-7.995C2.566.944 1.561 1.266.902 1.565.139 1.908 0 3.08 0 3.768c0 .69.378 5.65.624 6.479.785 2.627 3.6 3.476 6.158 3.226-4.477.753-8.4 3.378-4.8 9.527 4.457 5.667 7.382-1.58 8.018-3.6.636 2.02 2.322 8.69 7.682 3.6 3.27-5.76-.658-8.774-4.8-9.527 2.558.25 5.374-.599 6.158-3.226.246-.828.624-5.788.624-6.479 0-.688-.139-1.86-.902-2.203-.659-.3-1.664-.62-4.3 1.24C12.046 4.747 9.087 8.686 8 10.8h4z"/>
</svg>
