<svg xmlns="http://www.w3.org/2000/svg" viewBox="0 0 446 97" width="auto" height="auto" fill="none">
	<title>Kompo</title>
	<path d="m170.34 80.52h-17.57l-24.57-23.71q-2.06-1.88-1.92-4.69 0.1-1.31 0.66-2.44 0.61-1.17 1.64-1.97l22.26-17.95h19.5l-28.68 23.11zm-47.16 0h-12.19v-72.09h12.19zm107.44-17.11q0 3.14-0.8 5.67-0.8 2.48-2.11 4.4-1.31 1.88-3.05 3.24-1.73 1.31-3.65 2.15-1.88 0.85-3.85 1.27-1.92 0.38-3.65 0.38h-21.99q-2.53 0-5.53-0.9-3-0.89-5.58-2.9-2.53-2.06-4.26-5.3-1.69-3.28-1.69-8.01v-16.5q0-4.69 1.69-7.93 1.73-3.28 4.26-5.29 2.58-2.07 5.58-2.96 3-0.89 5.53-0.89h21.99q4.69 0 7.97 1.69 3.28 1.69 5.29 4.27 2.02 2.53 2.91 5.53 0.94 3 0.94 5.58zm-12.19-16.41q0-2.53-1.27-3.75-1.26-1.22-3.65-1.22h-21.89q-2.44 0-3.71 1.27-1.26 1.22-1.26 3.61v16.5q0 2.39 1.26 3.65 1.27 1.27 3.71 1.27h21.89q2.48 0 3.7-1.27 1.22-1.26 1.22-3.65zm67.83 33.51h-12.19v-33.61q0-2.39-1.27-3.61-1.26-1.26-3.75-1.26h-15.84v38.48h-12.19v-44.62q0-1.27 0.47-2.35 0.47-1.12 1.31-1.92 0.85-0.84 1.97-1.31 1.13-0.47 2.39-0.47h21.99q2.53 0 5.44 0.89 2.9 0.89 5.53 2.86v-3.75h16.5q1.73 0 3.65 0.42 1.93 0.38 3.8 1.22 1.92 0.84 3.66 2.2 1.73 1.32 3.04 3.24 1.32 1.87 2.11 4.36 0.8 2.48 0.8 5.62v33.61h-12.19v-33.61q0-2.39-1.22-3.61-1.17-1.26-3.65-1.26h-10.97q0.61 2.25 0.61 4.87zm94.54-17.11q0 3.14-0.79 5.67-0.8 2.49-2.11 4.41-1.31 1.88-3.05 3.23-1.73 1.32-3.65 2.16-1.88 0.84-3.8 1.27-1.92 0.37-3.66 0.37h-21.98v-12.19h21.98q2.44 0 3.66-1.26 1.22-1.27 1.22-3.66v-16.4q0-2.54-1.27-3.75-1.22-1.22-3.61-1.22h-21.89q-2.48 0-3.75 1.26-1.26 1.22-1.26 3.61v49.46h-12.19v-49.46q0-3.14 0.8-5.62 0.79-2.49 2.1-4.36 1.36-1.92 3.1-3.24 1.73-1.36 3.61-2.2 1.92-0.84 3.84-1.22 1.97-0.42 3.66-0.42h21.98q3.14 0 5.63 0.8 2.48 0.79 4.36 2.11 1.92 1.31 3.23 3.04 1.36 1.74 2.2 3.66 0.85 1.87 1.22 3.8 0.42 1.92 0.42 3.65zm65.54 0q0 3.14-0.8 5.67-0.8 2.49-2.11 4.41-1.31 1.88-3.05 3.23-1.73 1.32-3.65 2.16-1.88 0.84-3.85 1.27-1.92 0.37-3.65 0.37h-21.99q-2.53 0-5.53-0.89-3-0.89-5.58-2.91-2.53-2.06-4.26-5.29-1.69-3.28-1.69-8.02v-16.5q0-4.69 1.69-7.92 1.73-3.28 4.26-5.3 2.58-2.06 5.58-2.95 3-0.89 5.53-0.89h21.99q4.68 0 7.97 1.69 3.28 1.68 5.29 4.26 2.02 2.53 2.91 5.53 0.94 3 0.94 5.58zm-12.19-16.4q0-2.54-1.27-3.75-1.26-1.22-3.65-1.22h-21.89q-2.44 0-3.71 1.26-1.26 1.22-1.26 3.61v16.5q0 2.39 1.26 3.66 1.27 1.26 3.71 1.26h21.89q2.48 0 3.7-1.26 1.22-1.27 1.22-3.66z" fill="white" />
	<path d="m37.8 2.4c3.22-1.87 7.2-1.87 10.42 0l31.59 18.23c3.22 1.86 5.21 5.3 5.21 9.02v36.48c0 3.72-1.99 7.16-5.21 9.02l-31.59 18.24c-3.23 1.86-7.2 1.86-10.42 0l-31.59-18.24c-3.23-1.86-5.21-5.3-5.21-9.02v-36.48c0-3.72 1.98-7.16 5.21-9.02z" stroke="white" strokeWidth="6"/>
	<path d="m60.14 66.54h-9.63l-13.48-13.01q-1.12-1.03-1.05-2.57 0.05-0.72 0.36-1.34 0.34-0.64 0.9-1.08l12.21-9.84h10.69l-15.72 12.67zm-25.86 0h-6.69v-39.53h6.69z" fill="white"/>
</svg>