<svg viewBox="0 0 336 280" width="100%" height="100%" fill="none" xmlns="http://www.w3.org/2000/svg">
<title>Kompo</title>
<path d="M59.3438 263.525H41.7656L17.2031 239.806C15.8281 238.556 15.1875 236.994 15.2812 235.119C15.3438 234.244 15.5625 233.431 15.9375 232.681C16.3438 231.9 16.8906 231.244 17.5781 230.712L39.8438 212.759H59.3438L30.6562 235.869L59.3438 263.525ZM12.1875 263.525H0V191.431H12.1875V263.525ZM119.625 246.415C119.625 248.509 119.359 250.4 118.828 252.087C118.297 253.744 117.594 255.212 116.719 256.494C115.844 257.744 114.828 258.822 113.672 259.728C112.516 260.603 111.297 261.322 110.016 261.884C108.766 262.447 107.484 262.869 106.172 263.15C104.891 263.4 103.672 263.525 102.516 263.525H80.5312C78.8438 263.525 77 263.228 75 262.634C73 262.04 71.1406 261.072 69.4219 259.728C67.7344 258.353 66.3125 256.587 65.1562 254.431C64.0312 252.244 63.4688 249.572 63.4688 246.415V229.915C63.4688 226.79 64.0312 224.15 65.1562 221.994C66.3125 219.806 67.7344 218.04 69.4219 216.697C71.1406 215.322 73 214.337 75 213.744C77 213.15 78.8438 212.853 80.5312 212.853H102.516C105.641 212.853 108.297 213.415 110.484 214.54C112.672 215.665 114.438 217.087 115.781 218.806C117.125 220.494 118.094 222.337 118.688 224.337C119.312 226.337 119.625 228.197 119.625 229.915V246.415ZM107.438 230.009C107.438 228.322 107.016 227.072 106.172 226.259C105.328 225.447 104.109 225.04 102.516 225.04H80.625C79 225.04 77.7656 225.462 76.9219 226.306C76.0781 227.119 75.6562 228.322 75.6562 229.915V246.415C75.6562 248.009 76.0781 249.228 76.9219 250.072C77.7656 250.915 79 251.337 80.625 251.337H102.516C104.172 251.337 105.406 250.915 106.219 250.072C107.031 249.228 107.438 248.009 107.438 246.415V230.009ZM175.266 263.525H163.078V229.915C163.078 228.322 162.656 227.119 161.812 226.306C160.969 225.462 159.719 225.04 158.062 225.04H142.219V263.525H130.031V218.9C130.031 218.056 130.188 217.275 130.5 216.556C130.812 215.806 131.25 215.165 131.812 214.634C132.375 214.072 133.031 213.634 133.781 213.322C134.531 213.009 135.328 212.853 136.172 212.853H158.156C159.844 212.853 161.656 213.15 163.594 213.744C165.531 214.337 167.375 215.29 169.125 216.603V212.853H185.625C186.781 212.853 188 212.994 189.281 213.275C190.562 213.525 191.828 213.931 193.078 214.494C194.359 215.056 195.578 215.79 196.734 216.697C197.891 217.572 198.906 218.65 199.781 219.931C200.656 221.181 201.359 222.634 201.891 224.29C202.422 225.947 202.688 227.822 202.688 229.915V263.525H190.5V229.915C190.5 228.322 190.094 227.119 189.281 226.306C188.5 225.462 187.281 225.04 185.625 225.04H174.656C175.062 226.54 175.266 228.165 175.266 229.915V263.525ZM269.812 246.415C269.812 248.509 269.547 250.4 269.016 252.087C268.484 253.744 267.781 255.212 266.906 256.494C266.031 257.744 265.016 258.822 263.859 259.728C262.703 260.603 261.484 261.322 260.203 261.884C258.953 262.447 257.688 262.869 256.406 263.15C255.125 263.4 253.906 263.525 252.75 263.525H230.766V251.337H252.75C254.375 251.337 255.594 250.915 256.406 250.072C257.219 249.228 257.625 248.009 257.625 246.415V230.009C257.625 228.322 257.203 227.072 256.359 226.259C255.547 225.447 254.344 225.04 252.75 225.04H230.859C229.203 225.04 227.953 225.462 227.109 226.306C226.266 227.119 225.844 228.322 225.844 229.915V279.369H213.656V229.915C213.656 227.822 213.922 225.947 214.453 224.29C214.984 222.634 215.688 221.181 216.562 219.931C217.469 218.65 218.5 217.572 219.656 216.697C220.812 215.79 222.016 215.056 223.266 214.494C224.547 213.931 225.828 213.525 227.109 213.275C228.422 212.994 229.641 212.853 230.766 212.853H252.75C254.844 212.853 256.719 213.119 258.375 213.65C260.031 214.181 261.484 214.884 262.734 215.759C264.016 216.634 265.094 217.65 265.969 218.806C266.875 219.962 267.609 221.181 268.172 222.462C268.734 223.712 269.141 224.978 269.391 226.259C269.672 227.54 269.812 228.759 269.812 229.915V246.415ZM335.344 246.415C335.344 248.509 335.078 250.4 334.547 252.087C334.016 253.744 333.312 255.212 332.438 256.494C331.562 257.744 330.547 258.822 329.391 259.728C328.234 260.603 327.016 261.322 325.734 261.884C324.484 262.447 323.203 262.869 321.891 263.15C320.609 263.4 319.391 263.525 318.234 263.525H296.25C294.562 263.525 292.719 263.228 290.719 262.634C288.719 262.04 286.859 261.072 285.141 259.728C283.453 258.353 282.031 256.587 280.875 254.431C279.75 252.244 279.188 249.572 279.188 246.415V229.915C279.188 226.79 279.75 224.15 280.875 221.994C282.031 219.806 283.453 218.04 285.141 216.697C286.859 215.322 288.719 214.337 290.719 213.744C292.719 213.15 294.562 212.853 296.25 212.853H318.234C321.359 212.853 324.016 213.415 326.203 214.54C328.391 215.665 330.156 217.087 331.5 218.806C332.844 220.494 333.812 222.337 334.406 224.337C335.031 226.337 335.344 228.197 335.344 229.915V246.415ZM323.156 230.009C323.156 228.322 322.734 227.072 321.891 226.259C321.047 225.447 319.828 225.04 318.234 225.04H296.344C294.719 225.04 293.484 225.462 292.641 226.306C291.797 227.119 291.375 228.322 291.375 229.915V246.415C291.375 248.009 291.797 249.228 292.641 250.072C293.484 250.915 294.719 251.337 296.344 251.337H318.234C319.891 251.337 321.125 250.915 321.938 250.072C322.75 249.228 323.156 248.009 323.156 246.415V230.009Z" fill="white"/>
<path d="M157.594 5.54529C163.472 2.15134 170.715 2.15134 176.594 5.54529L234.206 38.808C240.085 42.202 243.706 48.4742 243.706 55.2621V121.787C243.706 128.575 240.085 134.848 234.206 138.242L176.594 171.504C170.715 174.898 163.472 174.898 157.594 171.504L99.9814 138.242C94.103 134.848 90.4816 128.575 90.4814 121.787V55.2621C90.4816 48.4742 94.103 42.202 99.9814 38.808L157.594 5.54529Z" stroke="white" strokeWidth="6"/>
<path d="M198.344 122.525H180.766L156.203 98.806C154.828 97.556 154.188 95.9935 154.281 94.1185C154.344 93.2435 154.562 92.431 154.938 91.681C155.344 90.8998 155.891 90.2435 156.578 89.7123L178.844 71.7592H198.344L169.656 94.8685L198.344 122.525ZM151.188 122.525H139V50.431H151.188V122.525Z" fill="white"/>
</svg>
