<svg viewBox="0 0 160 178" width="100%" height="100%" fill="none" xmlns="http://www.w3.org/2000/svg">
<title>Kompo</title>
<path d="M70.1122 5.54529C75.9907 2.15134 83.2336 2.15134 89.1122 5.54529L146.724 38.808C152.603 42.202 156.224 48.4742 156.224 55.2621V121.787C156.224 128.575 152.603 134.848 146.724 138.242L89.1122 171.504C83.2336 174.898 75.9907 174.898 70.1122 171.504L12.4999 138.242C6.62141 134.848 2.99996 128.575 2.99986 121.787V55.2621C2.99996 48.4742 6.62141 42.202 12.4999 38.808L70.1122 5.54529Z" stroke="white" strokeWidth="6"/>
<path d="M110.862 122.525H93.284L68.7215 98.806C67.3465 97.556 66.7059 95.9935 66.7997 94.1185C66.8622 93.2435 67.0809 92.431 67.4559 91.681C67.8622 90.8998 68.409 90.2435 69.0965 89.7123L91.3622 71.7592H110.862L82.1747 94.8685L110.862 122.525ZM63.7059 122.525H51.5184V50.431H63.7059V122.525Z" fill="white"/>
</svg>
